<svg width="83" height="57" viewBox="0 0 83 57" fill="none" xmlns="http://www.w3.org/2000/svg">
<path d="M13.9915 35.3461C13.9915 33.0774 14.3009 31.4531 14.9196 30.4734C15.5384 29.4938 16.5181 28.9008 17.8587 28.6945C19.1993 28.4883 20.9782 28.4367 23.1954 28.5399L28.8415 28.7719V46.4836C28.8415 47.8758 28.8673 49.0617 28.9189 50.0414C28.9189 51.0211 28.9704 51.8461 29.0735 52.5164L14.3009 52.2844C12.0321 52.2328 10.0728 51.8719 8.42276 51.2016C6.77276 50.4797 5.48369 49.2422 4.55557 47.4891C3.62744 45.736 3.16338 43.3383 3.16338 40.2961H0.533691L0.997753 55.3781H40.9071V52.8258C38.9478 52.7227 37.6071 52.2844 36.8853 51.511C36.1634 50.686 35.7767 49.5774 35.7251 48.1852C35.622 46.7414 35.5704 45.1172 35.5704 43.3125V9.9C35.5704 8.86875 35.5446 7.88906 35.4931 6.96094C35.4415 5.98125 35.39 5.10469 35.3384 4.33125C36.2665 4.38281 37.1946 4.43437 38.1228 4.48594C39.0509 4.5375 39.979 4.58906 40.9071 4.64063V1.2375H3.70479L3.31807 14.7727H5.87041C5.87041 11.7305 6.33447 9.43594 7.2626 7.88906C8.19072 6.29063 9.45401 5.23359 11.0524 4.71797C12.5993 4.15078 14.3524 3.89297 16.3118 3.94453L22.9634 4.09922C24.8712 4.15078 26.2376 4.51172 27.0626 5.18203C27.8876 5.85234 28.4032 6.85781 28.6095 8.19844C28.7642 9.4875 28.8415 11.1891 28.8415 13.3031V25.6781L14.3009 25.7555L14.8423 19.1039H11.4392V35.3461H13.9915Z" fill="#1A1C20"/>
<path d="M78.2642 18.4852C77.7486 13.6383 76.047 9.87422 73.1595 7.19297C70.3236 4.51172 66.6626 3.1711 62.1767 3.1711C59.4439 3.1711 56.8657 3.76406 54.4423 4.95C52.0704 6.08438 49.9821 7.73438 48.1775 9.9C46.3728 12.0656 44.9548 14.6695 43.9235 17.7117C42.8923 20.7539 42.3767 24.1828 42.3767 27.9984C42.3767 32.8453 43.3048 37.125 45.1611 40.8375C47.0173 44.55 49.5181 47.4375 52.6634 49.5C55.8087 51.5625 59.2892 52.5938 63.1048 52.5938C66.4564 52.5938 69.7564 51.8461 73.0048 50.3508C76.2532 48.8039 78.9087 46.5867 80.9712 43.6992L82.9822 45.3235C80.765 48.3656 78.3673 50.7117 75.7892 52.3617C73.2111 54.0117 70.6329 55.1203 68.0548 55.6875C65.5282 56.3063 63.2079 56.6156 61.0939 56.6156C57.2267 56.6156 53.6689 55.9196 50.4204 54.5274C47.2236 53.1352 44.4392 51.2016 42.0673 48.7266C39.747 46.2 37.9423 43.2867 36.6532 39.9867C35.4157 36.6352 34.797 33.0258 34.797 29.1586C34.797 25.4977 35.3384 21.9398 36.4212 18.4852C37.5556 15.0305 39.2314 11.9109 41.4485 9.12656C43.6657 6.34219 46.4501 4.125 49.8017 2.475C53.2048 0.825 57.1493 0 61.6353 0C64.5228 0 67.2556 0.386719 69.8337 1.16016C72.4118 1.93359 74.8868 3.11953 77.2587 4.71797L76.872 0.541404H81.0486V18.4852H78.2642Z" fill="#1A1C20"/>
</svg>
